<?xml version="1.0" standalone="no"?>
<!DOCTYPE svg PUBLIC "-//W3C//DTD SVG 20010904//EN"
 "http://www.w3.org/TR/2001/REC-SVG-20010904/DTD/svg10.dtd">
<svg version="1.0" xmlns="http://www.w3.org/2000/svg"
 width="1756.000000pt" height="1756.000000pt" viewBox="0 0 1756.000000 1756.000000"
 preserveAspectRatio="xMidYMid meet">
<metadata>
Created by potrace 1.14, written by Peter Selinger 2001-2017
</metadata>
<g transform="translate(0.000000,1756.000000) scale(0.100000,-0.100000)"
fill="#000000" stroke="none">
<path d="M8370 17539 c-1017 -81 -1983 -446 -2795 -1055 -283 -212 -636 -542
-859 -804 -630 -738 -1047 -1625 -1210 -2575 -60 -353 -76 -581 -76 -1109 l0
-402 -520 -94 -520 -95 0 -1448 c0 -872 4 -1516 10 -1620 107 -1793 733 -3483
1818 -4907 633 -830 1464 -1588 2342 -2135 170 -106 2207 -1285 2220 -1285 9
0 1879 1078 2085 1202 798 480 1545 1112 2152 1818 1279 1489 2025 3338 2143
5307 6 104 10 749 10 1621 l0 1448 -519 94 -519 94 -5 495 c-6 598 -20 759
-107 1192 -176 873 -589 1713 -1181 2404 -130 152 -429 451 -579 579 -708 604
-1544 1010 -2451 1190 -151 30 -296 52 -479 72 -161 19 -786 27 -960 13z"/>
</g>
</svg>
